# xmcd
#
# Track frame offsets:
#	150
#	16264
#	29706
#	45065
#	63015
#	76430
#	92005
#	105096
#	119807
#	137946
#	155221
#	171902
#	193091
#	207262
#
# Disc length: 3024 seconds
#
# Revision: 1
# Processed by: cddbd v1.5.1PL0 Copyright (c) Steve Scherf et al.
# Submitted via: dBpowerAMP V4.0
#
DISCID=ba0bce0e
DTITLE=Rick e Renner - O Bailão de Rick e Renner
DYEAR=1900
DGENRE=Sertanejo (BR)
TTITLE0=Muleca
TTITLE1=Sofro e Choro
TTITLE2=Na Pontinha do Pé
TTITLE3=Fim de Semana
TTITLE4=Que Nem Chiclete
TTITLE5=Enrosca Enrosca
TTITLE6=Tô Querendo de Novo
TTITLE7=Tira a Roupa
TTITLE8=De Mal Com Você
TTITLE9=Paixão de  Peão
TTITLE10=De Barretos a Nashville
TTITLE11=Nós Somos Dois Sem Vergonha
TTITLE12=Laços Quebrados
TTITLE13=Saudade Pesada
EXTD=
EXTT0=
EXTT1=
EXTT2=
EXTT3=
EXTT4=
EXTT5=
EXTT6=
EXTT7=
EXTT8=
EXTT9=
EXTT10=
EXTT11=
EXTT12=
EXTT13=
PLAYORDER=
